<svg width="584" height="160" viewBox="0 0 584 160" fill="none" xmlns="http://www.w3.org/2000/svg">
<g clip-path="url(#clip0_103_32)">
<ellipse cx="121.5" cy="71" rx="57.5" ry="61" fill="#CAB4DE"/>
<ellipse cx="82" cy="103.5" rx="76" ry="42.5" fill="#CAB4DE"/>
<ellipse cx="191.5" cy="84" rx="55.5" ry="41" fill="#CAB4DE"/>
<ellipse cx="177" cy="103.5" rx="65" ry="42.5" fill="#CAB4DE"/>
<ellipse cx="60.5" cy="63.5" rx="21.5" ry="20.5" fill="#CAB4DE"/>
<ellipse cx="177.5" cy="47" rx="19.5" ry="16" fill="#CAB4DE"/>
<rect x="84" y="113" width="94" height="33" fill="#CAB4DE"/>
<mask id="path-8-outside-1_103_32" maskUnits="userSpaceOnUse" x="263" y="47" width="314" height="71" fill="black">
<rect fill="white" x="263" y="47" width="314" height="71"/>
<path d="M273.3 114.9C272.967 114.9 272.3 114.433 271.3 113.5C270.367 112.567 269.9 111.933 269.9 111.6V74.5H265.2V70.6L269.9 68.7V64.9C269.9 63.5667 270.7 61.6667 272.3 59.2C273.967 56.6667 275.8 54.4 277.8 52.4C279.867 50.4 281.4 49.4 282.4 49.4C283.333 49.4 284.633 49.4667 286.3 49.6C287.967 49.7333 289.6 49.8667 291.2 50C291.667 50.3333 292.133 50.8333 292.6 51.5C293.133 52.1667 293.4 52.6667 293.4 53C293.4 53.2 293.1 54 292.5 55.4C291.9 56.7333 291.533 57.6 291.4 58C289.867 57.6 287.933 57.1333 285.6 56.6C283.267 56.0667 281.733 55.8 281 55.8C280.533 55.8 280.1 56.4 279.7 57.6C279.3 58.7333 279.1 60 279.1 61.4L279 69.2H288.5V74.6H279V107.7L284.1 109.2V113.3C277.5 114.367 273.9 114.9 273.3 114.9ZM310.074 114.9C305.274 114.9 301.674 113.667 299.274 111.2C296.874 108.667 295.674 104.267 295.674 98V75.1L292.274 73.6V69.9C297.741 68.9 300.741 68.4 301.274 68.4C301.608 68.4 302.274 68.8667 303.274 69.8C304.274 70.7333 304.774 71.3333 304.774 71.6V98C304.774 102.133 305.374 104.767 306.574 105.9C307.774 106.967 309.108 107.5 310.574 107.5C311.241 107.5 314.274 106.233 319.674 103.7V75.1L316.274 73.6V69.9C321.741 68.9 324.774 68.4 325.374 68.4C325.708 68.4 326.341 68.8667 327.274 69.8C328.274 70.7333 328.774 71.3333 328.774 71.6V108.1L332.174 109.6V113.3C326.774 114.367 323.774 114.9 323.174 114.9C322.841 114.9 322.208 114.433 321.274 113.5C320.408 112.567 319.974 111.933 319.974 111.6V107.8C318.108 109.267 316.041 110.833 313.774 112.5C311.508 114.1 310.274 114.9 310.074 114.9ZM351.159 115.1C350.959 115.1 350.525 114.833 349.859 114.3L339.059 74.9L335.359 73.8V69.7C340.425 68.9 343.259 68.5 343.859 68.5C344.192 68.5 344.892 68.9 345.959 69.7C347.025 70.4333 347.625 71.0333 347.759 71.5L353.559 95.9L355.559 104.5H356.659L363.559 81.5L361.659 74.8L357.959 73.8V69.7C363.025 68.9 365.859 68.5 366.459 68.5C366.792 68.5 367.492 68.9 368.559 69.7C369.625 70.4333 370.225 71.0333 370.359 71.5L376.159 95.9L378.159 104.5H379.259L387.059 74.7L380.459 74V69.2L392.659 68.5C392.992 68.5 393.559 68.9667 394.359 69.9C395.159 70.8333 395.559 71.5333 395.559 72L382.859 113.3C377.259 114.5 374.225 115.1 373.759 115.1C373.559 115.1 373.125 114.833 372.459 114.3L366.659 92.3H366.059L360.259 113.3C354.659 114.5 351.625 115.1 351.159 115.1ZM415.994 114.9C413.26 114.9 410.694 114.133 408.294 112.6C405.96 111 404.06 108.567 402.594 105.3C401.127 102.033 400.394 97.9667 400.394 93.1C400.394 89.9667 400.594 87.0667 400.994 84.4C401.46 81.6667 402.06 79.6 402.794 78.2C403.86 76.6667 406.227 74.6333 409.894 72.1C413.627 69.5667 416.094 68.3 417.294 68.3C418.627 68.3 424.46 69.0667 434.794 70.6V108.2L438.194 109.6V113.3C432.927 114.367 429.994 114.9 429.394 114.9C429.127 114.9 428.494 114.433 427.494 113.5C426.494 112.567 425.994 111.933 425.994 111.6V107.7C425.594 108.033 423.927 109.333 420.994 111.6C418.06 113.8 416.394 114.9 415.994 114.9ZM416.594 107.5C417.327 107.5 420.36 106.167 425.694 103.5V76C424.027 75.4667 421.86 75 419.194 74.6C416.527 74.1333 414.727 73.9667 413.794 74.1C412.527 74.3 411.56 75.7333 410.894 78.4C410.294 81.0667 409.994 85.7333 409.994 92.4C409.994 95.8 410.36 98.6333 411.094 100.9C411.894 103.167 412.794 104.833 413.794 105.9C414.86 106.967 415.794 107.5 416.594 107.5ZM465.418 114.9C464.618 114.9 461.918 114.633 457.318 114.1C452.785 113.567 449.651 113.133 447.918 112.8V56.1L444.418 54.7V51C445.885 50.6667 447.518 50.3333 449.318 50C451.185 49.6667 452.585 49.4667 453.518 49.4C453.851 49.4 454.518 49.8667 455.518 50.8C456.518 51.7333 457.018 52.3667 457.018 52.7L456.518 75.1L457.018 75.2C457.751 74.6667 458.451 74.1333 459.118 73.6C459.851 73.0667 460.518 72.6 461.118 72.2C464.518 69.6 466.385 68.3 466.718 68.3C469.385 68.3 471.918 69.0667 474.318 70.6C476.718 72.1333 478.651 74.5 480.118 77.7C481.585 80.9 482.318 84.8333 482.318 89.5C482.318 92.9 482.085 95.9667 481.618 98.7C481.218 101.433 480.651 103.533 479.918 105C478.851 106.533 476.451 108.567 472.718 111.1C469.051 113.633 466.618 114.9 465.418 114.9ZM468.918 109.1C470.185 108.9 471.118 107.467 471.718 104.8C472.385 102.133 472.718 97.4667 472.718 90.8C472.718 87.4 472.318 84.5667 471.518 82.3C470.785 80.0333 469.885 78.3667 468.818 77.3C467.818 76.2333 466.918 75.7 466.118 75.7C465.785 75.7 464.585 76.1667 462.518 77.1C460.518 77.9667 458.685 78.8333 457.018 79.7V107.2C458.685 107.733 460.851 108.233 463.518 108.7C466.185 109.1 467.985 109.233 468.918 109.1ZM505.545 114.9C502.811 114.9 500.245 114.133 497.845 112.6C495.511 111 493.611 108.567 492.145 105.3C490.678 102.033 489.945 97.9667 489.945 93.1C489.945 89.9667 490.145 87.0667 490.545 84.4C491.011 81.6667 491.611 79.6 492.345 78.2C493.411 76.6667 495.778 74.6333 499.445 72.1C503.178 69.5667 505.645 68.3 506.845 68.3C508.178 68.3 514.011 69.0667 524.345 70.6V108.2L527.745 109.6V113.3C522.478 114.367 519.545 114.9 518.945 114.9C518.678 114.9 518.045 114.433 517.045 113.5C516.045 112.567 515.545 111.933 515.545 111.6V107.7C515.145 108.033 513.478 109.333 510.545 111.6C507.611 113.8 505.945 114.9 505.545 114.9ZM506.145 107.5C506.878 107.5 509.911 106.167 515.245 103.5V76C513.578 75.4667 511.411 75 508.745 74.6C506.078 74.1333 504.278 73.9667 503.345 74.1C502.078 74.3 501.111 75.7333 500.445 78.4C499.845 81.0667 499.545 85.7333 499.545 92.4C499.545 95.8 499.911 98.6333 500.645 100.9C501.445 103.167 502.345 104.833 503.345 105.9C504.411 106.967 505.345 107.5 506.145 107.5ZM541.269 114.9C540.935 114.9 540.269 114.433 539.269 113.5C538.335 112.567 537.869 111.933 537.869 111.6V75.1L534.369 73.6V69.9C539.835 68.9 542.869 68.4 543.469 68.4C543.802 68.4 544.402 68.8667 545.269 69.8C546.202 70.6667 546.669 71.2667 546.669 71.6V75.4C548.669 73.9333 550.802 72.4 553.069 70.8C555.402 69.2 556.702 68.4 556.969 68.4C561.769 68.4 565.369 69.6667 567.769 72.2C570.169 74.6667 571.369 79 571.369 85.2V108.1L574.869 109.6V113.3C569.335 114.367 566.302 114.9 565.769 114.9C565.435 114.9 564.769 114.433 563.769 113.5C562.769 112.567 562.269 111.933 562.269 111.6V85.2C562.269 81.0667 561.669 78.4667 560.469 77.4C559.269 76.3333 557.935 75.8 556.469 75.8C555.735 75.8 554.069 76.4 551.469 77.6C548.935 78.7333 547.435 79.4 546.969 79.6V108.1L550.369 109.6V113.3C544.902 114.367 541.869 114.9 541.269 114.9Z"/>
</mask>
<path d="M273.3 114.9C272.967 114.9 272.3 114.433 271.3 113.5C270.367 112.567 269.9 111.933 269.9 111.6V74.5H265.2V70.6L269.9 68.7V64.9C269.9 63.5667 270.7 61.6667 272.3 59.2C273.967 56.6667 275.8 54.4 277.8 52.4C279.867 50.4 281.4 49.4 282.4 49.4C283.333 49.4 284.633 49.4667 286.3 49.6C287.967 49.7333 289.6 49.8667 291.2 50C291.667 50.3333 292.133 50.8333 292.6 51.5C293.133 52.1667 293.4 52.6667 293.4 53C293.4 53.2 293.1 54 292.5 55.4C291.9 56.7333 291.533 57.6 291.4 58C289.867 57.6 287.933 57.1333 285.6 56.6C283.267 56.0667 281.733 55.8 281 55.8C280.533 55.8 280.1 56.4 279.7 57.6C279.3 58.7333 279.1 60 279.1 61.4L279 69.2H288.5V74.6H279V107.7L284.1 109.2V113.3C277.5 114.367 273.9 114.9 273.3 114.9ZM310.074 114.9C305.274 114.9 301.674 113.667 299.274 111.2C296.874 108.667 295.674 104.267 295.674 98V75.1L292.274 73.6V69.9C297.741 68.9 300.741 68.4 301.274 68.4C301.608 68.4 302.274 68.8667 303.274 69.8C304.274 70.7333 304.774 71.3333 304.774 71.6V98C304.774 102.133 305.374 104.767 306.574 105.9C307.774 106.967 309.108 107.5 310.574 107.5C311.241 107.5 314.274 106.233 319.674 103.7V75.1L316.274 73.6V69.9C321.741 68.9 324.774 68.4 325.374 68.4C325.708 68.4 326.341 68.8667 327.274 69.8C328.274 70.7333 328.774 71.3333 328.774 71.6V108.1L332.174 109.6V113.3C326.774 114.367 323.774 114.9 323.174 114.9C322.841 114.9 322.208 114.433 321.274 113.5C320.408 112.567 319.974 111.933 319.974 111.6V107.8C318.108 109.267 316.041 110.833 313.774 112.5C311.508 114.1 310.274 114.9 310.074 114.9ZM351.159 115.1C350.959 115.1 350.525 114.833 349.859 114.3L339.059 74.9L335.359 73.8V69.7C340.425 68.9 343.259 68.5 343.859 68.5C344.192 68.5 344.892 68.9 345.959 69.7C347.025 70.4333 347.625 71.0333 347.759 71.5L353.559 95.9L355.559 104.5H356.659L363.559 81.5L361.659 74.8L357.959 73.8V69.7C363.025 68.9 365.859 68.5 366.459 68.5C366.792 68.5 367.492 68.9 368.559 69.7C369.625 70.4333 370.225 71.0333 370.359 71.5L376.159 95.9L378.159 104.5H379.259L387.059 74.7L380.459 74V69.2L392.659 68.5C392.992 68.5 393.559 68.9667 394.359 69.9C395.159 70.8333 395.559 71.5333 395.559 72L382.859 113.3C377.259 114.5 374.225 115.1 373.759 115.1C373.559 115.1 373.125 114.833 372.459 114.3L366.659 92.3H366.059L360.259 113.3C354.659 114.5 351.625 115.1 351.159 115.1ZM415.994 114.9C413.26 114.9 410.694 114.133 408.294 112.6C405.96 111 404.06 108.567 402.594 105.3C401.127 102.033 400.394 97.9667 400.394 93.1C400.394 89.9667 400.594 87.0667 400.994 84.4C401.46 81.6667 402.06 79.6 402.794 78.2C403.86 76.6667 406.227 74.6333 409.894 72.1C413.627 69.5667 416.094 68.3 417.294 68.3C418.627 68.3 424.46 69.0667 434.794 70.6V108.2L438.194 109.6V113.3C432.927 114.367 429.994 114.9 429.394 114.9C429.127 114.9 428.494 114.433 427.494 113.5C426.494 112.567 425.994 111.933 425.994 111.6V107.7C425.594 108.033 423.927 109.333 420.994 111.6C418.06 113.8 416.394 114.9 415.994 114.9ZM416.594 107.5C417.327 107.5 420.36 106.167 425.694 103.5V76C424.027 75.4667 421.86 75 419.194 74.6C416.527 74.1333 414.727 73.9667 413.794 74.1C412.527 74.3 411.56 75.7333 410.894 78.4C410.294 81.0667 409.994 85.7333 409.994 92.4C409.994 95.8 410.36 98.6333 411.094 100.9C411.894 103.167 412.794 104.833 413.794 105.9C414.86 106.967 415.794 107.5 416.594 107.5ZM465.418 114.9C464.618 114.9 461.918 114.633 457.318 114.1C452.785 113.567 449.651 113.133 447.918 112.8V56.1L444.418 54.7V51C445.885 50.6667 447.518 50.3333 449.318 50C451.185 49.6667 452.585 49.4667 453.518 49.4C453.851 49.4 454.518 49.8667 455.518 50.8C456.518 51.7333 457.018 52.3667 457.018 52.7L456.518 75.1L457.018 75.2C457.751 74.6667 458.451 74.1333 459.118 73.6C459.851 73.0667 460.518 72.6 461.118 72.2C464.518 69.6 466.385 68.3 466.718 68.3C469.385 68.3 471.918 69.0667 474.318 70.6C476.718 72.1333 478.651 74.5 480.118 77.7C481.585 80.9 482.318 84.8333 482.318 89.5C482.318 92.9 482.085 95.9667 481.618 98.7C481.218 101.433 480.651 103.533 479.918 105C478.851 106.533 476.451 108.567 472.718 111.1C469.051 113.633 466.618 114.9 465.418 114.9ZM468.918 109.1C470.185 108.9 471.118 107.467 471.718 104.8C472.385 102.133 472.718 97.4667 472.718 90.8C472.718 87.4 472.318 84.5667 471.518 82.3C470.785 80.0333 469.885 78.3667 468.818 77.3C467.818 76.2333 466.918 75.7 466.118 75.7C465.785 75.7 464.585 76.1667 462.518 77.1C460.518 77.9667 458.685 78.8333 457.018 79.7V107.2C458.685 107.733 460.851 108.233 463.518 108.7C466.185 109.1 467.985 109.233 468.918 109.1ZM505.545 114.9C502.811 114.9 500.245 114.133 497.845 112.6C495.511 111 493.611 108.567 492.145 105.3C490.678 102.033 489.945 97.9667 489.945 93.1C489.945 89.9667 490.145 87.0667 490.545 84.4C491.011 81.6667 491.611 79.6 492.345 78.2C493.411 76.6667 495.778 74.6333 499.445 72.1C503.178 69.5667 505.645 68.3 506.845 68.3C508.178 68.3 514.011 69.0667 524.345 70.6V108.2L527.745 109.6V113.3C522.478 114.367 519.545 114.9 518.945 114.9C518.678 114.9 518.045 114.433 517.045 113.5C516.045 112.567 515.545 111.933 515.545 111.6V107.7C515.145 108.033 513.478 109.333 510.545 111.6C507.611 113.8 505.945 114.9 505.545 114.9ZM506.145 107.5C506.878 107.5 509.911 106.167 515.245 103.5V76C513.578 75.4667 511.411 75 508.745 74.6C506.078 74.1333 504.278 73.9667 503.345 74.1C502.078 74.3 501.111 75.7333 500.445 78.4C499.845 81.0667 499.545 85.7333 499.545 92.4C499.545 95.8 499.911 98.6333 500.645 100.9C501.445 103.167 502.345 104.833 503.345 105.9C504.411 106.967 505.345 107.5 506.145 107.5ZM541.269 114.9C540.935 114.9 540.269 114.433 539.269 113.5C538.335 112.567 537.869 111.933 537.869 111.6V75.1L534.369 73.6V69.9C539.835 68.9 542.869 68.4 543.469 68.4C543.802 68.4 544.402 68.8667 545.269 69.8C546.202 70.6667 546.669 71.2667 546.669 71.6V75.4C548.669 73.9333 550.802 72.4 553.069 70.8C555.402 69.2 556.702 68.4 556.969 68.4C561.769 68.4 565.369 69.6667 567.769 72.2C570.169 74.6667 571.369 79 571.369 85.2V108.1L574.869 109.6V113.3C569.335 114.367 566.302 114.9 565.769 114.9C565.435 114.9 564.769 114.433 563.769 113.5C562.769 112.567 562.269 111.933 562.269 111.6V85.2C562.269 81.0667 561.669 78.4667 560.469 77.4C559.269 76.3333 557.935 75.8 556.469 75.8C555.735 75.8 554.069 76.4 551.469 77.6C548.935 78.7333 547.435 79.4 546.969 79.6V108.1L550.369 109.6V113.3C544.902 114.367 541.869 114.9 541.269 114.9Z" fill="url(#paint0_linear_103_32)"/>
<path d="M271.3 113.5L269.886 114.914L269.91 114.939L269.935 114.962L271.3 113.5ZM269.9 74.5H271.9V72.5H269.9V74.5ZM265.2 74.5H263.2V76.5H265.2V74.5ZM265.2 70.6L264.45 68.7458L263.2 69.2513V70.6H265.2ZM269.9 68.7L270.65 70.5542L271.9 70.0487V68.7H269.9ZM272.3 59.2L270.629 58.1007L270.622 58.1116L272.3 59.2ZM277.8 52.4L276.409 50.9628L276.397 50.9742L276.386 50.9858L277.8 52.4ZM286.3 49.6L286.459 47.6064L286.459 47.6064L286.3 49.6ZM291.2 50L292.362 48.3725L291.915 48.0526L291.366 48.0069L291.2 50ZM292.6 51.5L290.962 52.6469L290.998 52.6994L291.038 52.7494L292.6 51.5ZM292.5 55.4L294.324 56.2207L294.331 56.2043L294.338 56.1878L292.5 55.4ZM291.4 58L290.895 59.9352L292.706 60.4075L293.297 58.6325L291.4 58ZM285.6 56.6L285.154 58.5497L285.154 58.5497L285.6 56.6ZM279.7 57.6L281.586 58.2656L281.592 58.2491L281.597 58.2325L279.7 57.6ZM279.1 61.4L281.1 61.4256L281.1 61.4128V61.4H279.1ZM279 69.2L277 69.1744L276.974 71.2H279V69.2ZM288.5 69.2H290.5V67.2H288.5V69.2ZM288.5 74.6V76.6H290.5V74.6H288.5ZM279 74.6V72.6H277V74.6H279ZM279 107.7H277V109.196L278.436 109.619L279 107.7ZM284.1 109.2H286.1V107.704L284.664 107.281L284.1 109.2ZM284.1 113.3L284.419 115.274L286.1 115.003V113.3H284.1ZM273.3 114.9V112.9C273.485 112.9 273.624 112.931 273.699 112.952C273.776 112.974 273.822 112.995 273.833 113C273.85 113.008 273.809 112.99 273.697 112.912C273.474 112.756 273.136 112.477 272.665 112.038L271.3 113.5L269.935 114.962C270.464 115.456 270.959 115.878 271.403 116.188C271.625 116.344 271.875 116.5 272.142 116.625C272.38 116.736 272.794 116.9 273.3 116.9V114.9ZM271.3 113.5L272.714 112.086C272.278 111.649 272.008 111.339 271.86 111.139C271.786 111.038 271.775 111.008 271.789 111.037C271.797 111.054 271.821 111.106 271.845 111.19C271.868 111.271 271.9 111.413 271.9 111.6H269.9H267.9C267.9 112.113 268.068 112.531 268.186 112.776C268.317 113.046 268.48 113.295 268.64 113.511C268.959 113.945 269.389 114.417 269.886 114.914L271.3 113.5ZM269.9 111.6H271.9V74.5H269.9H267.9V111.6H269.9ZM269.9 74.5V72.5H265.2V74.5V76.5H269.9V74.5ZM265.2 74.5H267.2V70.6H265.2H263.2V74.5H265.2ZM265.2 70.6L265.95 72.4542L270.65 70.5542L269.9 68.7L269.15 66.8458L264.45 68.7458L265.2 70.6ZM269.9 68.7H271.9V64.9H269.9H267.9V68.7H269.9ZM269.9 64.9H271.9C271.9 64.2028 272.389 62.7373 273.978 60.2884L272.3 59.2L270.622 58.1116C269.011 60.596 267.9 62.9305 267.9 64.9H269.9ZM272.3 59.2L273.971 60.2992C275.568 57.8712 277.317 55.7116 279.214 53.8142L277.8 52.4L276.386 50.9858C274.283 53.0884 272.365 55.4621 270.629 58.1008L272.3 59.2ZM277.8 52.4L279.191 53.8372C280.178 52.8818 280.975 52.2279 281.593 51.8252C282.266 51.3858 282.494 51.4 282.4 51.4V49.4V47.4C281.306 47.4 280.267 47.9142 279.407 48.4748C278.492 49.0721 277.489 49.9182 276.409 50.9628L277.8 52.4ZM282.4 49.4V51.4C283.254 51.4 284.493 51.4618 286.141 51.5936L286.3 49.6L286.459 47.6064C284.774 47.4715 283.412 47.4 282.4 47.4V49.4ZM286.3 49.6L286.141 51.5936C287.805 51.7268 289.436 51.8599 291.034 51.9931L291.2 50L291.366 48.0069C289.764 47.8734 288.128 47.7399 286.459 47.6064L286.3 49.6ZM291.2 50L290.038 51.6275C290.26 51.7861 290.575 52.0948 290.962 52.6469L292.6 51.5L294.238 50.3531C293.692 49.5719 293.074 48.8805 292.362 48.3725L291.2 50ZM292.6 51.5L291.038 52.7494C291.262 53.0296 291.381 53.2147 291.435 53.3162C291.461 53.3643 291.457 53.3664 291.445 53.3283C291.434 53.2933 291.4 53.1766 291.4 53H293.4H295.4C295.4 52.3503 295.158 51.7963 294.965 51.4338C294.752 51.0353 294.471 50.6371 294.162 50.2506L292.6 51.5ZM293.4 53H291.4C291.4 52.8151 291.429 52.6883 291.43 52.6841C291.436 52.6577 291.438 52.6557 291.428 52.6878C291.409 52.7515 291.37 52.867 291.302 53.0477C291.168 53.405 290.957 53.9223 290.662 54.6122L292.5 55.4L294.338 56.1878C294.643 55.4777 294.882 54.895 295.048 54.4522C295.13 54.233 295.204 54.0235 295.259 53.8372C295.291 53.7319 295.4 53.3815 295.4 53H293.4ZM292.5 55.4L290.676 54.5793C290.088 55.8873 289.674 56.8524 289.503 57.3675L291.4 58L293.297 58.6325C293.392 58.3476 293.712 57.5794 294.324 56.2207L292.5 55.4ZM291.4 58L291.905 56.0648C290.345 55.6578 288.39 55.1861 286.046 54.6503L285.6 56.6L285.154 58.5497C287.477 59.0805 289.389 59.5422 290.895 59.9352L291.4 58ZM285.6 56.6L286.046 54.6503C283.764 54.1288 282.001 53.8 281 53.8V55.8V57.8C281.465 57.8 282.769 58.0046 285.154 58.5497L285.6 56.6ZM281 55.8V53.8C279.819 53.8 279.072 54.5694 278.704 55.079C278.313 55.6196 278.028 56.2909 277.803 56.9675L279.7 57.6L281.597 58.2325C281.68 57.985 281.755 57.7946 281.821 57.6527C281.888 57.5075 281.933 57.439 281.946 57.421C281.963 57.3981 281.91 57.4802 281.766 57.5766C281.603 57.6849 281.338 57.8 281 57.8V55.8ZM279.7 57.6L277.814 56.9344C277.327 58.3135 277.1 59.8099 277.1 61.4H279.1H281.1C281.1 60.1901 281.273 59.1531 281.586 58.2656L279.7 57.6ZM279.1 61.4L277.1 61.3744L277 69.1744L279 69.2L281 69.2256L281.1 61.4256L279.1 61.4ZM279 69.2V71.2H288.5V69.2V67.2H279V69.2ZM288.5 69.2H286.5V74.6H288.5H290.5V69.2H288.5ZM288.5 74.6V72.6H279V74.6V76.6H288.5V74.6ZM279 74.6H277V107.7H279H281V74.6H279ZM279 107.7L278.436 109.619L283.536 111.119L284.1 109.2L284.664 107.281L279.564 105.781L279 107.7ZM284.1 109.2H282.1V113.3H284.1H286.1V109.2H284.1ZM284.1 113.3L283.781 111.326C280.484 111.859 277.944 112.257 276.157 112.522C275.262 112.654 274.566 112.752 274.061 112.816C273.499 112.887 273.298 112.9 273.3 112.9V114.9V116.9C273.602 116.9 274.076 116.846 274.564 116.784C275.109 116.715 275.838 116.613 276.743 116.478C278.556 116.21 281.116 115.808 284.419 115.274L284.1 113.3ZM299.274 111.2L297.822 112.575L297.831 112.585L297.841 112.595L299.274 111.2ZM295.674 75.1H297.674V73.7964L296.481 73.2702L295.674 75.1ZM292.274 73.6H290.274V74.9036L291.467 75.4298L292.274 73.6ZM292.274 69.9L291.914 67.9326L290.274 68.2327V69.9H292.274ZM306.574 105.9L305.201 107.354L305.223 107.375L305.245 107.395L306.574 105.9ZM319.674 103.7L320.524 105.511L321.674 104.971V103.7H319.674ZM319.674 75.1H321.674V73.7964L320.482 73.2702L319.674 75.1ZM316.274 73.6H314.274V74.9036L315.467 75.4298L316.274 73.6ZM316.274 69.9L315.914 67.9326L314.274 68.2327V69.9H316.274ZM327.274 69.8L325.86 71.2142L325.884 71.2386L325.91 71.2621L327.274 69.8ZM328.774 108.1H326.774V109.404L327.967 109.93L328.774 108.1ZM332.174 109.6H334.174V108.296L332.982 107.77L332.174 109.6ZM332.174 113.3L332.562 115.262L334.174 114.944V113.3H332.174ZM321.274 113.5L319.809 114.861L319.834 114.888L319.86 114.914L321.274 113.5ZM319.974 107.8H321.974V103.685L318.739 106.227L319.974 107.8ZM313.774 112.5L314.928 114.134L314.943 114.123L314.959 114.111L313.774 112.5ZM310.074 114.9V112.9C305.597 112.9 302.603 111.753 300.708 109.805L299.274 111.2L297.841 112.595C300.746 115.581 304.952 116.9 310.074 116.9V114.9ZM299.274 111.2L300.726 109.825C298.869 107.864 297.674 104.124 297.674 98H295.674H293.674C293.674 104.409 294.879 109.469 297.822 112.575L299.274 111.2ZM295.674 98H297.674V75.1H295.674H293.674V98H295.674ZM295.674 75.1L296.481 73.2702L293.081 71.7702L292.274 73.6L291.467 75.4298L294.867 76.9298L295.674 75.1ZM292.274 73.6H294.274V69.9H292.274H290.274V73.6H292.274ZM292.274 69.9L292.634 71.8674C295.364 71.368 297.469 70.9952 298.953 70.7478C299.696 70.6239 300.274 70.5332 300.692 70.474C301.168 70.4066 301.309 70.4 301.274 70.4V68.4V66.4C300.973 66.4 300.538 66.4559 300.131 66.5135C299.666 66.5793 299.052 66.6761 298.295 66.8022C296.78 67.0548 294.651 67.432 291.914 67.9326L292.274 69.9ZM301.274 68.4V70.4C301.089 70.4 300.95 70.3686 300.876 70.3478C300.799 70.3262 300.752 70.305 300.741 70.2999C300.724 70.2919 300.766 70.3102 300.877 70.3885C301.1 70.5443 301.439 70.8226 301.91 71.2621L303.274 69.8L304.639 68.3379C304.11 67.8441 303.615 67.4224 303.171 67.1115C302.95 66.9564 302.699 66.7997 302.432 66.6751C302.195 66.5641 301.781 66.4 301.274 66.4V68.4ZM303.274 69.8L301.91 71.2621C302.387 71.7073 302.691 72.0248 302.863 72.2304C302.95 72.3355 302.965 72.3665 302.948 72.3369C302.938 72.3201 302.903 72.2577 302.867 72.157C302.834 72.0635 302.774 71.8666 302.774 71.6H304.774H306.774C306.774 70.9922 306.521 70.5263 306.413 70.3381C306.271 70.0918 306.098 69.8645 305.936 69.6696C305.607 69.2752 305.162 68.826 304.639 68.3379L303.274 69.8ZM304.774 71.6H302.774V98H304.774H306.774V71.6H304.774ZM304.774 98H302.774C302.774 100.146 302.928 102.002 303.274 103.519C303.611 105 304.183 106.392 305.201 107.354L306.574 105.9L307.947 104.446C307.766 104.274 307.437 103.784 307.174 102.631C306.92 101.515 306.774 99.987 306.774 98H304.774ZM306.574 105.9L305.245 107.395C306.774 108.754 308.57 109.5 310.574 109.5V107.5V105.5C309.645 105.5 308.774 105.18 307.903 104.405L306.574 105.9ZM310.574 107.5V109.5C310.912 109.5 311.227 109.43 311.423 109.38C311.654 109.322 311.905 109.244 312.166 109.155C312.688 108.976 313.344 108.719 314.12 108.396C315.676 107.746 317.815 106.781 320.524 105.511L319.674 103.7L318.825 101.889C316.134 103.152 314.056 104.088 312.579 104.704C311.837 105.014 311.273 105.232 310.87 105.37C310.668 105.44 310.531 105.48 310.447 105.501C310.329 105.531 310.403 105.5 310.574 105.5V107.5ZM319.674 103.7H321.674V75.1H319.674H317.674V103.7H319.674ZM319.674 75.1L320.482 73.2702L317.081 71.7702L316.274 73.6L315.467 75.4298L318.867 76.9298L319.674 75.1ZM316.274 73.6H318.274V69.9H316.274H314.274V73.6H316.274ZM316.274 69.9L316.634 71.8674C319.363 71.3681 321.475 70.9955 322.975 70.7484C323.725 70.6246 324.312 70.5341 324.741 70.4751C325.22 70.4092 325.385 70.4 325.374 70.4V68.4V66.4C325.064 66.4 324.625 66.4533 324.195 66.5124C323.716 66.5784 323.09 66.6754 322.324 66.8016C320.79 67.0545 318.652 67.4319 315.914 67.9326L316.274 69.9ZM325.374 68.4V70.4C325.187 70.4 325.045 70.3682 324.964 70.3449C324.881 70.3211 324.828 70.2968 324.811 70.2886C324.782 70.2747 324.813 70.2863 324.913 70.3601C325.113 70.5075 325.424 70.7779 325.86 71.2142L327.274 69.8L328.688 68.3858C328.191 67.8888 327.719 67.4591 327.286 67.1399C327.069 66.9804 326.82 66.817 326.55 66.6864C326.305 66.5681 325.888 66.4 325.374 66.4V68.4ZM327.274 69.8L325.91 71.2621C326.387 71.7073 326.691 72.0248 326.863 72.2304C326.95 72.3355 326.965 72.3665 326.948 72.3369C326.938 72.3201 326.903 72.2577 326.867 72.157C326.834 72.0635 326.774 71.8666 326.774 71.6H328.774H330.774C330.774 70.9922 330.521 70.5263 330.413 70.3381C330.271 70.0918 330.098 69.8645 329.936 69.6696C329.607 69.2752 329.162 68.826 328.639 68.3379L327.274 69.8ZM328.774 71.6H326.774V108.1H328.774H330.774V71.6H328.774ZM328.774 108.1L327.967 109.93L331.367 111.43L332.174 109.6L332.982 107.77L329.582 106.27L328.774 108.1ZM332.174 109.6H330.174V113.3H332.174H334.174V109.6H332.174ZM332.174 113.3L331.787 111.338C329.091 111.87 327.005 112.268 325.524 112.531C324.782 112.663 324.204 112.759 323.781 112.822C323.305 112.892 323.152 112.9 323.174 112.9V114.9V116.9C323.497 116.9 323.943 116.841 324.367 116.778C324.845 116.708 325.466 116.604 326.224 116.469C327.743 116.199 329.858 115.796 332.562 115.262L332.174 113.3ZM323.174 114.9V112.9C323.361 112.9 323.503 112.932 323.585 112.955C323.668 112.979 323.72 113.003 323.737 113.011C323.766 113.025 323.736 113.014 323.636 112.94C323.436 112.792 323.125 112.522 322.688 112.086L321.274 113.5L319.86 114.914C320.357 115.411 320.83 115.841 321.263 116.16C321.479 116.32 321.728 116.483 321.998 116.614C322.244 116.732 322.661 116.9 323.174 116.9V114.9ZM321.274 113.5L322.74 112.139C322.336 111.704 322.086 111.395 321.95 111.196C321.882 111.096 321.87 111.064 321.88 111.088C321.881 111.09 321.974 111.284 321.974 111.6H319.974H317.974C317.974 112.083 318.121 112.481 318.23 112.724C318.35 112.99 318.5 113.237 318.649 113.454C318.946 113.888 319.346 114.362 319.809 114.861L321.274 113.5ZM319.974 111.6H321.974V107.8H319.974H317.974V111.6H319.974ZM319.974 107.8L318.739 106.227C316.891 107.679 314.842 109.232 312.589 110.889L313.774 112.5L314.959 114.111C317.24 112.434 319.324 110.855 321.21 109.373L319.974 107.8ZM313.774 112.5L312.621 110.866C311.494 111.662 310.644 112.244 310.061 112.622C309.766 112.814 309.565 112.936 309.443 113.004C309.379 113.039 309.37 113.042 309.398 113.029C309.412 113.023 309.464 113.001 309.542 112.977C309.596 112.961 309.798 112.9 310.074 112.9V114.9V116.9C310.565 116.9 310.958 116.713 310.998 116.696C311.14 116.633 311.277 116.561 311.393 116.496C311.629 116.364 311.916 116.186 312.238 115.978C312.888 115.556 313.788 114.938 314.928 114.134L313.774 112.5ZM349.859 114.3L347.93 114.829L348.102 115.456L348.609 115.862L349.859 114.3ZM339.059 74.9L340.987 74.3713L340.694 73.2996L339.629 72.9829L339.059 74.9ZM335.359 73.8H333.359V75.2919L334.789 75.7171L335.359 73.8ZM335.359 69.7L335.047 67.7245L333.359 67.991V69.7H335.359ZM345.959 69.7L344.759 71.3L344.792 71.3247L344.826 71.3481L345.959 69.7ZM347.759 71.5L349.704 71.0375L349.694 70.9938L349.682 70.9506L347.759 71.5ZM353.559 95.9L355.507 95.447L355.504 95.4375L353.559 95.9ZM355.559 104.5L353.611 104.953L353.97 106.5H355.559V104.5ZM356.659 104.5V106.5H358.147L358.574 105.075L356.659 104.5ZM363.559 81.5L365.474 82.0747L365.642 81.5158L365.483 80.9544L363.559 81.5ZM361.659 74.8L363.583 74.2544L363.274 73.1648L362.18 72.8693L361.659 74.8ZM357.959 73.8H355.959V75.3312L357.437 75.7307L357.959 73.8ZM357.959 69.7L357.647 67.7245L355.959 67.991V69.7H357.959ZM368.559 69.7L367.359 71.3L367.392 71.3247L367.426 71.3481L368.559 69.7ZM370.359 71.5L372.304 71.0375L372.294 70.9938L372.282 70.9506L370.359 71.5ZM376.159 95.9L378.107 95.447L378.104 95.4375L376.159 95.9ZM378.159 104.5L376.211 104.953L376.57 106.5H378.159V104.5ZM379.259 104.5V106.5H380.802L381.193 105.006L379.259 104.5ZM387.059 74.7L388.993 75.2064L389.582 72.9565L387.27 72.7112L387.059 74.7ZM380.459 74H378.459V75.7991L380.248 75.9888L380.459 74ZM380.459 69.2L380.344 67.2033L378.459 67.3115V69.2H380.459ZM392.659 68.5V66.5H392.601L392.544 66.5033L392.659 68.5ZM394.359 69.9L392.84 71.2016L392.84 71.2016L394.359 69.9ZM395.559 72L397.47 72.5878L397.559 72.3006V72H395.559ZM382.859 113.3L383.278 115.256L384.425 115.01L384.77 113.888L382.859 113.3ZM372.459 114.3L370.525 114.81L370.693 115.449L371.209 115.862L372.459 114.3ZM366.659 92.3L368.593 91.7901L368.2 90.3H366.659V92.3ZM366.059 92.3V90.3H364.536L364.131 91.7676L366.059 92.3ZM360.259 113.3L360.678 115.256L361.864 115.001L362.186 113.832L360.259 113.3ZM351.159 115.1V113.1C351.348 113.1 351.492 113.13 351.572 113.151C351.657 113.173 351.715 113.196 351.741 113.207C351.789 113.227 351.79 113.233 351.732 113.197C351.679 113.164 351.6 113.112 351.491 113.033C351.384 112.954 351.256 112.857 351.108 112.738L349.859 114.3L348.609 115.862C348.97 116.15 349.318 116.408 349.635 116.603C349.794 116.701 349.982 116.806 350.189 116.893C350.362 116.966 350.716 117.1 351.159 117.1V115.1ZM349.859 114.3L351.787 113.771L340.987 74.3713L339.059 74.9L337.13 75.4287L347.93 114.829L349.859 114.3ZM339.059 74.9L339.629 72.9829L335.929 71.8829L335.359 73.8L334.789 75.7171L338.489 76.8171L339.059 74.9ZM335.359 73.8H337.359V69.7H335.359H333.359V73.8H335.359ZM335.359 69.7L335.671 71.6755C338.2 71.2761 340.163 70.9781 341.563 70.7804C342.264 70.6814 342.815 70.6089 343.221 70.5616C343.425 70.5379 343.583 70.5215 343.701 70.5113C343.831 70.5001 343.872 70.5 343.859 70.5V68.5V66.5C343.383 66.5 342.352 66.6293 341.004 66.8196C339.571 67.0219 337.584 67.3239 335.047 67.7245L335.359 69.7ZM343.859 68.5V70.5C343.707 70.5 343.596 70.4782 343.543 70.4656C343.513 70.4586 343.491 70.4521 343.478 70.4478C343.464 70.4435 343.456 70.4406 343.455 70.4401C343.454 70.4397 343.47 70.4456 343.504 70.4625C343.537 70.479 343.583 70.503 343.641 70.5365C343.888 70.6775 344.255 70.9221 344.759 71.3L345.959 69.7L347.159 68.1C346.596 67.6779 346.079 67.3225 345.626 67.0635C345.399 66.9341 345.153 66.8081 344.899 66.7099C344.672 66.6218 344.299 66.5 343.859 66.5V68.5ZM345.959 69.7L344.826 71.3481C345.305 71.6775 345.613 71.933 345.794 72.1142C345.883 72.2028 345.918 72.2508 345.923 72.2581C345.93 72.2687 345.878 72.1972 345.836 72.0494L347.759 71.5L349.682 70.9506C349.476 70.2293 349.007 69.6704 348.623 69.2858C348.204 68.867 347.679 68.4558 347.092 68.0519L345.959 69.7ZM347.759 71.5L345.813 71.9625L351.613 96.3625L353.559 95.9L355.504 95.4375L349.704 71.0375L347.759 71.5ZM353.559 95.9L351.611 96.353L353.611 104.953L355.559 104.5L357.507 104.047L355.507 95.447L353.559 95.9ZM355.559 104.5V106.5H356.659V104.5V102.5H355.559V104.5ZM356.659 104.5L358.574 105.075L365.474 82.0747L363.559 81.5L361.643 80.9253L354.743 103.925L356.659 104.5ZM363.559 81.5L365.483 80.9544L363.583 74.2544L361.659 74.8L359.734 75.3456L361.634 82.0456L363.559 81.5ZM361.659 74.8L362.18 72.8693L358.48 71.8693L357.959 73.8L357.437 75.7307L361.137 76.7307L361.659 74.8ZM357.959 73.8H359.959V69.7H357.959H355.959V73.8H357.959ZM357.959 69.7L358.271 71.6755C360.8 71.2761 362.763 70.9781 364.163 70.7804C364.864 70.6814 365.415 70.6089 365.821 70.5616C366.025 70.5379 366.183 70.5215 366.301 70.5113C366.431 70.5001 366.472 70.5 366.459 70.5V68.5V66.5C365.983 66.5 364.952 66.6293 363.604 66.8196C362.171 67.0219 360.184 67.3239 357.647 67.7245L357.959 69.7ZM366.459 68.5V70.5C366.307 70.5 366.196 70.4782 366.143 70.4656C366.113 70.4586 366.091 70.4521 366.078 70.4478C366.064 70.4435 366.056 70.4406 366.055 70.4401C366.054 70.4397 366.07 70.4456 366.104 70.4625C366.137 70.479 366.183 70.503 366.241 70.5365C366.488 70.6775 366.855 70.9221 367.359 71.3L368.559 69.7L369.759 68.1C369.196 67.6779 368.679 67.3225 368.226 67.0635C367.999 66.9341 367.753 66.8081 367.499 66.7099C367.272 66.6218 366.899 66.5 366.459 66.5V68.5ZM368.559 69.7L367.426 71.3481C367.905 71.6775 368.213 71.933 368.394 72.1142C368.483 72.2028 368.518 72.2508 368.523 72.2581C368.53 72.2687 368.478 72.1972 368.436 72.0494L370.359 71.5L372.282 70.9506C372.076 70.2293 371.607 69.6704 371.223 69.2858C370.804 68.867 370.279 68.4558 369.692 68.0519L368.559 69.7ZM370.359 71.5L368.413 71.9625L374.213 96.3625L376.159 95.9L378.104 95.4375L372.304 71.0375L370.359 71.5ZM376.159 95.9L374.211 96.353L376.211 104.953L378.159 104.5L380.107 104.047L378.107 95.447L376.159 95.9ZM378.159 104.5V106.5H379.259V104.5V102.5H378.159V104.5ZM379.259 104.5L381.193 105.006L388.993 75.2064L387.059 74.7L385.124 74.1936L377.324 103.994L379.259 104.5ZM387.059 74.7L387.27 72.7112L380.67 72.0112L380.459 74L380.248 75.9888L386.848 76.6888L387.059 74.7ZM380.459 74H382.459V69.2H380.459H378.459V74H380.459ZM380.459 69.2L380.573 71.1967L392.773 70.4967L392.659 68.5L392.544 66.5033L380.344 67.2033L380.459 69.2ZM392.659 68.5V70.5C392.469 70.5 392.32 70.4673 392.224 70.4386C392.127 70.4099 392.062 70.3786 392.032 70.363C391.978 70.335 391.985 70.3305 392.062 70.3939C392.217 70.5212 392.472 70.7725 392.84 71.2016L394.359 69.9L395.877 68.5984C395.445 68.0941 395.017 67.6455 394.605 67.3061C394.399 67.1361 394.152 66.9567 393.873 66.812C393.611 66.6763 393.186 66.5 392.659 66.5V68.5ZM394.359 69.9L392.84 71.2016C393.196 71.6166 393.408 71.9182 393.522 72.1173C393.577 72.2142 393.593 72.2581 393.592 72.2549C393.591 72.2515 393.583 72.2286 393.575 72.1883C393.567 72.1479 393.559 72.0838 393.559 72H395.559H397.559C397.559 71.2496 397.258 70.5931 396.995 70.1327C396.709 69.6318 396.321 69.1167 395.877 68.5984L394.359 69.9ZM395.559 72L393.647 71.4122L380.947 112.712L382.859 113.3L384.77 113.888L397.47 72.5878L395.559 72ZM382.859 113.3L382.44 111.344C379.643 111.944 377.497 112.391 375.996 112.688C375.244 112.837 374.665 112.945 374.252 113.016C373.757 113.101 373.668 113.1 373.759 113.1V115.1V117.1C374.083 117.1 374.548 117.024 374.928 116.959C375.39 116.88 376.007 116.763 376.772 116.612C378.304 116.309 380.474 115.856 383.278 115.256L382.859 113.3ZM373.759 115.1V113.1C373.948 113.1 374.092 113.13 374.172 113.151C374.257 113.173 374.315 113.196 374.341 113.207C374.389 113.227 374.39 113.233 374.332 113.197C374.279 113.164 374.2 113.112 374.091 113.033C373.984 112.954 373.856 112.857 373.708 112.738L372.459 114.3L371.209 115.862C371.57 116.15 371.918 116.408 372.235 116.603C372.394 116.701 372.582 116.806 372.789 116.893C372.962 116.966 373.316 117.1 373.759 117.1V115.1ZM372.459 114.3L374.393 113.79L368.593 91.7901L366.659 92.3L364.725 92.8099L370.525 114.81L372.459 114.3ZM366.659 92.3V90.3H366.059V92.3V94.3H366.659V92.3ZM366.059 92.3L364.131 91.7676L358.331 112.768L360.259 113.3L362.186 113.832L367.986 92.8324L366.059 92.3ZM360.259 113.3L359.84 111.344C357.043 111.944 354.897 112.391 353.396 112.688C352.644 112.837 352.065 112.945 351.652 113.016C351.157 113.101 351.068 113.1 351.159 113.1V115.1V117.1C351.483 117.1 351.948 117.024 352.328 116.959C352.79 116.88 353.407 116.763 354.172 116.612C355.704 116.309 357.874 115.856 360.678 115.256L360.259 113.3ZM408.294 112.6L407.163 114.249L407.19 114.268L407.217 114.285L408.294 112.6ZM400.994 84.4L399.022 84.0634L399.019 84.0833L399.016 84.1033L400.994 84.4ZM402.794 78.2L401.152 77.0579L401.08 77.1609L401.022 77.272L402.794 78.2ZM409.894 72.1L408.771 70.445L408.764 70.4498L408.757 70.4545L409.894 72.1ZM434.794 70.6H436.794V68.8749L435.087 68.6217L434.794 70.6ZM434.794 108.2H432.794V109.539L434.032 110.049L434.794 108.2ZM438.194 109.6H440.194V108.261L438.955 107.751L438.194 109.6ZM438.194 113.3L438.591 115.26L440.194 114.936V113.3H438.194ZM427.494 113.5L428.858 112.038L428.858 112.038L427.494 113.5ZM425.994 107.7H427.994V103.43L424.713 106.164L425.994 107.7ZM420.994 111.6L422.194 113.2L422.205 113.191L422.217 113.183L420.994 111.6ZM425.694 103.5L426.588 105.289L427.694 104.736V103.5H425.694ZM425.694 76H427.694V74.5401L426.303 74.0951L425.694 76ZM419.194 74.6L418.849 76.5701L418.873 76.5743L418.897 76.5779L419.194 74.6ZM413.794 74.1L413.511 72.1201L413.496 72.1222L413.482 72.1245L413.794 74.1ZM410.894 78.4L408.953 77.9149L408.948 77.9379L408.943 77.961L410.894 78.4ZM411.094 100.9L409.191 101.516L409.199 101.541L409.208 101.566L411.094 100.9ZM413.794 105.9L412.335 107.268L412.357 107.291L412.38 107.314L413.794 105.9ZM415.994 114.9V112.9C413.659 112.9 411.463 112.252 409.371 110.915L408.294 112.6L407.217 114.285C409.924 116.015 412.862 116.9 415.994 116.9V114.9ZM408.294 112.6L409.425 110.951C407.465 109.607 405.774 107.5 404.418 104.481L402.594 105.3L400.769 106.119C402.347 109.633 404.456 112.393 407.163 114.249L408.294 112.6ZM402.594 105.3L404.418 104.481C403.101 101.547 402.394 97.7799 402.394 93.1H400.394H398.394C398.394 98.1534 399.153 102.52 400.769 106.119L402.594 105.3ZM400.394 93.1H402.394C402.394 90.0505 402.588 87.2509 402.972 84.6967L400.994 84.4L399.016 84.1033C398.599 86.8824 398.394 89.8829 398.394 93.1H400.394ZM400.994 84.4L402.965 84.7366C403.419 82.0788 403.976 80.2533 404.565 79.128L402.794 78.2L401.022 77.272C400.145 78.9467 399.502 81.2545 399.022 84.0634L400.994 84.4ZM402.794 78.2L404.436 79.3421C405.274 78.1363 407.362 76.2798 411.031 73.7455L409.894 72.1L408.757 70.4545C405.092 72.9869 402.446 75.197 401.152 77.0579L402.794 78.2ZM409.894 72.1L411.017 73.7549C412.852 72.5095 414.327 71.6097 415.457 71.0291C416.022 70.739 416.469 70.5453 416.809 70.4279C417.17 70.3031 417.31 70.3 417.294 70.3V68.3V66.3C416.166 66.3 414.868 66.8354 413.63 67.4709C412.294 68.1569 410.669 69.1572 408.771 70.445L409.894 72.1ZM417.294 68.3V70.3C417.798 70.3 419.434 70.4671 422.408 70.8579C425.309 71.2391 429.338 71.8123 434.5 72.5783L434.794 70.6L435.087 68.6217C429.917 67.8544 425.862 67.2775 422.929 66.8921C420.07 66.5162 418.123 66.3 417.294 66.3V68.3ZM434.794 70.6H432.794V108.2H434.794H436.794V70.6H434.794ZM434.794 108.2L434.032 110.049L437.432 111.449L438.194 109.6L438.955 107.751L435.555 106.351L434.794 108.2ZM438.194 109.6H436.194V113.3H438.194H440.194V109.6H438.194ZM438.194 113.3L437.797 111.34C435.168 111.872 433.133 112.269 431.686 112.532C430.961 112.664 430.396 112.76 429.983 112.822C429.517 112.893 429.369 112.9 429.394 112.9V114.9V116.9C429.719 116.9 430.162 116.841 430.58 116.778C431.05 116.707 431.66 116.603 432.402 116.468C433.888 116.198 435.953 115.794 438.591 115.26L438.194 113.3ZM429.394 114.9V112.9C429.638 112.9 429.816 112.951 429.896 112.976C429.983 113.005 430.036 113.032 430.046 113.037C430.062 113.045 430.02 113.024 429.905 112.94C429.68 112.774 429.337 112.484 428.858 112.038L427.494 113.5L426.129 114.962C426.651 115.449 427.124 115.859 427.532 116.16C427.734 116.309 427.963 116.463 428.204 116.588C428.389 116.684 428.832 116.9 429.394 116.9V114.9ZM427.494 113.5L428.858 112.038C428.389 111.6 428.098 111.287 427.939 111.086C427.859 110.984 427.847 110.955 427.864 110.987C427.874 111.006 427.902 111.063 427.93 111.154C427.957 111.242 427.994 111.397 427.994 111.6H425.994H423.994C423.994 112.144 424.184 112.58 424.311 112.825C424.453 113.099 424.629 113.349 424.799 113.564C425.14 113.996 425.598 114.467 426.129 114.962L427.494 113.5ZM425.994 111.6H427.994V107.7H425.994H423.994V111.6H425.994ZM425.994 107.7L424.713 106.164C424.35 106.466 422.725 107.735 419.771 110.017L420.994 111.6L422.217 113.183C425.129 110.932 426.838 109.6 427.274 109.236L425.994 107.7ZM420.994 111.6L419.794 110C418.337 111.092 417.225 111.889 416.442 112.406C416.047 112.667 415.769 112.834 415.592 112.928C415.501 112.976 415.471 112.987 415.487 112.981C415.496 112.978 415.538 112.962 415.605 112.945C415.665 112.93 415.804 112.9 415.994 112.9V114.9V116.9C416.422 116.9 416.772 116.772 416.92 116.716C417.114 116.641 417.303 116.549 417.471 116.459C417.81 116.279 418.207 116.033 418.645 115.744C419.529 115.161 420.717 114.308 422.194 113.2L420.994 111.6ZM416.594 107.5V109.5C417.169 109.5 417.806 109.29 418.242 109.135C418.78 108.945 419.445 108.673 420.224 108.331C421.785 107.644 423.911 106.627 426.588 105.289L425.694 103.5L424.799 101.711C422.143 103.039 420.086 104.022 418.614 104.669C417.876 104.994 417.312 105.222 416.908 105.365C416.402 105.544 416.385 105.5 416.594 105.5V107.5ZM425.694 103.5H427.694V76H425.694H423.694V103.5H425.694ZM425.694 76L426.303 74.0951C424.495 73.5166 422.213 73.0305 419.49 72.6221L419.194 74.6L418.897 76.5779C421.508 76.9695 423.559 77.4167 425.084 77.9048L425.694 76ZM419.194 74.6L419.539 72.6299C416.917 72.1712 414.808 71.9348 413.511 72.1201L413.794 74.1L414.077 76.0799C414.646 75.9985 416.137 76.0954 418.849 76.5701L419.194 74.6ZM413.794 74.1L413.482 72.1245C412.129 72.3381 411.142 73.1966 410.461 74.2067C409.793 75.1961 409.314 76.4729 408.953 77.9149L410.894 78.4L412.834 78.8851C413.14 77.6604 413.477 76.8872 413.777 76.4433C414.062 76.02 414.192 76.0619 414.106 76.0755L413.794 74.1ZM410.894 78.4L408.943 77.961C408.288 80.8679 407.994 85.7363 407.994 92.4H409.994H411.994C411.994 85.7304 412.299 81.2654 412.845 78.839L410.894 78.4ZM409.994 92.4H407.994C407.994 95.9275 408.372 98.9851 409.191 101.516L411.094 100.9L412.997 100.284C412.349 98.2816 411.994 95.6725 411.994 92.4H409.994ZM411.094 100.9L409.208 101.566C410.048 103.946 411.062 105.91 412.335 107.268L413.794 105.9L415.253 104.532C414.526 103.757 413.74 102.387 412.98 100.234L411.094 100.9ZM413.794 105.9L412.38 107.314C413.525 108.459 414.955 109.5 416.594 109.5V107.5V105.5C416.641 105.5 416.551 105.515 416.286 105.364C416.022 105.213 415.662 104.94 415.208 104.486L413.794 105.9ZM457.318 114.1L457.084 116.086L457.088 116.087L457.318 114.1ZM447.918 112.8H445.918V114.452L447.54 114.764L447.918 112.8ZM447.918 56.1H449.918V54.7459L448.661 54.243L447.918 56.1ZM444.418 54.7H442.418V56.0541L443.675 56.5569L444.418 54.7ZM444.418 51L443.975 49.0497L442.418 49.4035V51H444.418ZM449.318 50L448.966 48.0311L448.954 48.0334L449.318 50ZM453.518 49.4V47.4H453.447L453.375 47.4051L453.518 49.4ZM455.518 50.8L454.153 52.2621L455.518 50.8ZM457.018 52.7L459.017 52.7446L459.018 52.7223V52.7H457.018ZM456.518 75.1L454.518 75.0554L454.481 76.7322L456.126 77.0612L456.518 75.1ZM457.018 75.2L456.626 77.1612L457.485 77.3331L458.194 76.8175L457.018 75.2ZM459.118 73.6L457.942 71.9825L457.904 72.0096L457.869 72.0383L459.118 73.6ZM461.118 72.2L462.227 73.8641L462.281 73.8281L462.333 73.7887L461.118 72.2ZM474.318 70.6L475.395 68.9146L475.395 68.9146L474.318 70.6ZM480.118 77.7L481.936 76.8667L481.936 76.8667L480.118 77.7ZM481.618 98.7L479.646 98.3634L479.642 98.3869L479.639 98.4104L481.618 98.7ZM479.918 105L481.56 106.142L481.642 106.024L481.707 105.894L479.918 105ZM472.718 111.1L471.595 109.445L471.588 109.45L471.581 109.455L472.718 111.1ZM468.918 109.1L469.201 111.08L469.215 111.078L469.23 111.076L468.918 109.1ZM471.718 104.8L469.778 104.315L469.772 104.338L469.767 104.361L471.718 104.8ZM471.518 82.3L469.615 82.9156L469.623 82.9408L469.632 82.9656L471.518 82.3ZM468.818 77.3L467.359 78.6679L467.381 78.6914L467.404 78.7142L468.818 77.3ZM462.518 77.1L463.313 78.9351L463.327 78.929L463.341 78.9227L462.518 77.1ZM457.018 79.7L456.095 77.9256L455.018 78.4858V79.7H457.018ZM457.018 107.2H455.018V108.66L456.408 109.105L457.018 107.2ZM463.518 108.7L463.173 110.67L463.197 110.674L463.221 110.678L463.518 108.7ZM465.418 114.9V112.9C464.765 112.9 462.218 112.655 457.548 112.113L457.318 114.1L457.088 116.087C461.618 116.612 464.471 116.9 465.418 116.9V114.9ZM457.318 114.1L457.552 112.114C453.014 111.58 449.948 111.154 448.296 110.836L447.918 112.8L447.54 114.764C449.354 115.113 452.555 115.553 457.084 116.086L457.318 114.1ZM447.918 112.8H449.918V56.1H447.918H445.918V112.8H447.918ZM447.918 56.1L448.661 54.243L445.161 52.843L444.418 54.7L443.675 56.5569L447.175 57.9569L447.918 56.1ZM444.418 54.7H446.418V51H444.418H442.418V54.7H444.418ZM444.418 51L444.861 52.9503C446.297 52.624 447.903 52.296 449.682 51.9666L449.318 50L448.954 48.0334C447.133 48.3707 445.473 48.7093 443.975 49.0497L444.418 51ZM449.318 50L449.67 51.9689C451.522 51.6381 452.837 51.4537 453.66 51.3949L453.518 49.4L453.375 47.4051C452.332 47.4796 450.847 47.6953 448.966 48.0311L449.318 50ZM453.518 49.4V51.4C453.333 51.4 453.194 51.3686 453.119 51.3478C453.042 51.3262 452.996 51.305 452.985 51.2999C452.968 51.2919 453.009 51.3102 453.121 51.3885C453.344 51.5443 453.682 51.8226 454.153 52.2621L455.518 50.8L456.883 49.3379C456.354 48.8441 455.859 48.4224 455.415 48.1115C455.193 47.9564 454.943 47.7997 454.676 47.6751C454.438 47.5641 454.024 47.4 453.518 47.4V49.4ZM455.518 50.8L454.153 52.2621C454.623 52.7001 454.914 53.0128 455.073 53.2143C455.153 53.3156 455.164 53.3449 455.148 53.3126C455.138 53.2937 455.11 53.2365 455.082 53.1464C455.055 53.0582 455.018 52.9034 455.018 52.7H457.018H459.018C459.018 52.156 458.828 51.7204 458.701 51.4749C458.559 51.2009 458.383 50.9511 458.213 50.7357C457.872 50.3039 457.413 49.8332 456.883 49.3379L455.518 50.8ZM457.018 52.7L455.018 52.6554L454.518 75.0554L456.518 75.1L458.517 75.1446L459.017 52.7446L457.018 52.7ZM456.518 75.1L456.126 77.0612L456.626 77.1612L457.018 75.2L457.41 73.2388L456.91 73.1388L456.518 75.1ZM457.018 75.2L458.194 76.8175C458.951 76.2672 459.675 75.7153 460.367 75.1617L459.118 73.6L457.869 72.0383C457.227 72.5513 456.552 73.0661 455.842 73.5825L457.018 75.2ZM459.118 73.6L460.294 75.2175C461.011 74.6963 461.655 74.2458 462.227 73.8641L461.118 72.2L460.009 70.5359C459.381 70.9542 458.692 71.4371 457.942 71.9825L459.118 73.6ZM461.118 72.2L462.333 73.7887C464.026 72.494 465.315 71.5405 466.211 70.9162C466.663 70.6014 466.986 70.3906 467.198 70.2656C467.306 70.2015 467.351 70.1808 467.347 70.1824C467.345 70.1833 467.302 70.2032 467.229 70.2258C467.177 70.2418 466.985 70.3 466.718 70.3V68.3V66.3C466.202 66.3 465.784 66.4993 465.695 66.5395C465.512 66.6223 465.329 66.7235 465.163 66.8219C464.824 67.0219 464.406 67.2986 463.925 67.6338C462.955 68.3095 461.61 69.306 459.903 70.6113L461.118 72.2ZM466.718 68.3V70.3C468.977 70.3 471.14 70.9429 473.241 72.2854L474.318 70.6L475.395 68.9146C472.696 67.1904 469.792 66.3 466.718 66.3V68.3ZM474.318 70.6L473.241 72.2854C475.248 73.5678 476.955 75.6001 478.3 78.5333L480.118 77.7L481.936 76.8667C480.347 73.3999 478.187 70.6989 475.395 68.9146L474.318 70.6ZM480.118 77.7L478.3 78.5333C479.614 81.4013 480.318 85.0317 480.318 89.5H482.318H484.318C484.318 84.6349 483.555 80.3986 481.936 76.8667L480.118 77.7ZM482.318 89.5H480.318C480.318 92.8114 480.09 95.7628 479.646 98.3634L481.618 98.7L483.589 99.0366C484.079 96.1705 484.318 92.9886 484.318 89.5H482.318ZM481.618 98.7L479.639 98.4104C479.252 101.057 478.724 102.915 478.129 104.106L479.918 105L481.707 105.894C482.578 104.151 483.184 101.81 483.597 98.9896L481.618 98.7ZM479.918 105L478.276 103.858C477.444 105.055 475.333 106.909 471.595 109.445L472.718 111.1L473.841 112.755C477.57 110.225 480.259 108.012 481.56 106.142L479.918 105ZM472.718 111.1L471.581 109.455C469.78 110.699 468.331 111.597 467.219 112.176C466.664 112.465 466.225 112.658 465.891 112.774C465.537 112.897 465.4 112.9 465.418 112.9V114.9V116.9C466.55 116.9 467.842 116.361 469.066 115.724C470.388 115.036 471.99 114.034 473.855 112.745L472.718 111.1ZM468.918 109.1L469.23 111.076C470.593 110.86 471.577 109.991 472.244 108.966C472.895 107.967 473.344 106.683 473.669 105.239L471.718 104.8L469.767 104.361C469.492 105.584 469.175 106.349 468.892 106.784C468.626 107.192 468.51 107.14 468.606 107.124L468.918 109.1ZM471.718 104.8L473.658 105.285C474.391 102.354 474.718 97.4642 474.718 90.8H472.718H470.718C470.718 97.4692 470.378 101.913 469.778 104.315L471.718 104.8ZM472.718 90.8H474.718C474.718 87.2596 474.304 84.1834 473.404 81.6344L471.518 82.3L469.632 82.9656C470.332 84.9499 470.718 87.5404 470.718 90.8H472.718ZM471.518 82.3L473.421 81.6844C472.641 79.2733 471.616 77.2692 470.232 75.8858L468.818 77.3L467.404 78.7142C468.154 79.4641 468.928 80.7934 469.615 82.9156L471.518 82.3ZM468.818 77.3L470.277 75.9321C469.185 74.7677 467.783 73.7 466.118 73.7V75.7V77.7C466.065 77.7 466.139 77.6819 466.373 77.8206C466.611 77.9613 466.941 78.2221 467.359 78.6679L468.818 77.3ZM466.118 75.7V73.7C465.706 73.7 465.313 73.8164 465.123 73.8742C464.864 73.9532 464.566 74.0606 464.243 74.186C463.594 74.4383 462.74 74.8051 461.695 75.2773L462.518 77.1L463.341 78.9227C464.362 78.4615 465.142 78.1283 465.693 77.914C465.97 77.8061 466.164 77.7385 466.288 77.7008C466.481 77.642 466.363 77.7 466.118 77.7V75.7ZM462.518 77.1L461.723 75.2649C459.686 76.1474 457.81 77.0341 456.095 77.9256L457.018 79.7L457.941 81.4744C459.56 80.6326 461.35 79.7859 463.313 78.9351L462.518 77.1ZM457.018 79.7H455.018V107.2H457.018H459.018V79.7H457.018ZM457.018 107.2L456.408 109.105C458.195 109.677 460.46 110.195 463.173 110.67L463.518 108.7L463.863 106.73C461.243 106.271 459.174 105.79 457.628 105.295L457.018 107.2ZM463.518 108.7L463.221 110.678C465.847 111.072 467.933 111.261 469.201 111.08L468.918 109.1L468.635 107.12C468.037 107.206 466.522 107.128 463.815 106.722L463.518 108.7ZM497.845 112.6L496.713 114.249L496.74 114.268L496.768 114.285L497.845 112.6ZM490.545 84.4L488.573 84.0634L488.57 84.0833L488.567 84.1033L490.545 84.4ZM492.345 78.2L490.703 77.0579L490.631 77.1609L490.573 77.272L492.345 78.2ZM499.445 72.1L498.322 70.445L498.315 70.4498L498.308 70.4545L499.445 72.1ZM524.345 70.6H526.345V68.8749L524.638 68.6217L524.345 70.6ZM524.345 108.2H522.345V109.539L523.583 110.049L524.345 108.2ZM527.745 109.6H529.745V108.261L528.506 107.751L527.745 109.6ZM527.745 113.3L528.142 115.26L529.745 114.936V113.3H527.745ZM517.045 113.5L518.409 112.038L518.409 112.038L517.045 113.5ZM515.545 107.7H517.545V103.43L514.264 106.164L515.545 107.7ZM510.545 111.6L511.745 113.2L511.756 113.191L511.767 113.183L510.545 111.6ZM515.245 103.5L516.139 105.289L517.245 104.736V103.5H515.245ZM515.245 76H517.245V74.5401L515.854 74.0951L515.245 76ZM508.745 74.6L508.4 76.5701L508.424 76.5743L508.448 76.5779L508.745 74.6ZM503.345 74.1L503.062 72.1201L503.047 72.1222L503.033 72.1245L503.345 74.1ZM500.445 78.4L498.504 77.9149L498.499 77.9379L498.493 77.961L500.445 78.4ZM500.645 100.9L498.742 101.516L498.75 101.541L498.759 101.566L500.645 100.9ZM503.345 105.9L501.885 107.268L501.908 107.291L501.93 107.314L503.345 105.9ZM505.545 114.9V112.9C503.209 112.9 501.014 112.252 498.921 110.915L497.845 112.6L496.768 114.285C499.475 116.015 502.413 116.9 505.545 116.9V114.9ZM497.845 112.6L498.976 110.951C497.016 109.607 495.325 107.5 493.969 104.481L492.145 105.3L490.32 106.119C491.898 109.633 494.006 112.393 496.713 114.249L497.845 112.6ZM492.145 105.3L493.969 104.481C492.652 101.547 491.945 97.7799 491.945 93.1H489.945H487.945C487.945 98.1534 488.704 102.52 490.32 106.119L492.145 105.3ZM489.945 93.1H491.945C491.945 90.0505 492.139 87.2509 492.522 84.6967L490.545 84.4L488.567 84.1033C488.15 86.8824 487.945 89.8829 487.945 93.1H489.945ZM490.545 84.4L492.516 84.7366C492.97 82.0788 493.527 80.2533 494.116 79.128L492.345 78.2L490.573 77.272C489.696 78.9467 489.053 81.2545 488.573 84.0634L490.545 84.4ZM492.345 78.2L493.986 79.3421C494.825 78.1363 496.913 76.2798 500.581 73.7455L499.445 72.1L498.308 70.4545C494.642 72.9869 491.997 75.197 490.703 77.0579L492.345 78.2ZM499.445 72.1L500.568 73.7549C502.403 72.5095 503.878 71.6097 505.008 71.0291C505.573 70.739 506.02 70.5453 506.36 70.4279C506.721 70.3031 506.861 70.3 506.845 70.3V68.3V66.3C505.717 66.3 504.418 66.8354 503.181 67.4709C501.845 68.1569 500.219 69.1572 498.322 70.445L499.445 72.1ZM506.845 68.3V70.3C507.349 70.3 508.985 70.4671 511.959 70.8579C514.859 71.2391 518.888 71.8123 524.051 72.5783L524.345 70.6L524.638 68.6217C519.467 67.8544 515.413 67.2775 512.48 66.8921C509.621 66.5162 507.674 66.3 506.845 66.3V68.3ZM524.345 70.6H522.345V108.2H524.345H526.345V70.6H524.345ZM524.345 108.2L523.583 110.049L526.983 111.449L527.745 109.6L528.506 107.751L525.106 106.351L524.345 108.2ZM527.745 109.6H525.745V113.3H527.745H529.745V109.6H527.745ZM527.745 113.3L527.348 111.34C524.719 111.872 522.684 112.269 521.237 112.532C520.512 112.664 519.947 112.76 519.534 112.822C519.068 112.893 518.92 112.9 518.945 112.9V114.9V116.9C519.269 116.9 519.713 116.841 520.131 116.778C520.601 116.707 521.21 116.603 521.952 116.468C523.439 116.198 525.504 115.794 528.142 115.26L527.745 113.3ZM518.945 114.9V112.9C519.189 112.9 519.367 112.951 519.447 112.976C519.534 113.005 519.587 113.032 519.596 113.037C519.613 113.045 519.571 113.024 519.456 112.94C519.231 112.774 518.887 112.484 518.409 112.038L517.045 113.5L515.68 114.962C516.202 115.449 516.675 115.859 517.083 116.16C517.285 116.309 517.514 116.463 517.755 116.588C517.94 116.684 518.382 116.9 518.945 116.9V114.9ZM517.045 113.5L518.409 112.038C517.94 111.6 517.648 111.287 517.489 111.086C517.409 110.984 517.398 110.955 517.415 110.987C517.425 111.006 517.453 111.063 517.48 111.154C517.507 111.242 517.545 111.397 517.545 111.6H515.545H513.545C513.545 112.144 513.735 112.58 513.862 112.825C514.004 113.099 514.18 113.349 514.35 113.564C514.691 113.996 515.149 114.467 515.68 114.962L517.045 113.5ZM515.545 111.6H517.545V107.7H515.545H513.545V111.6H515.545ZM515.545 107.7L514.264 106.164C513.901 106.466 512.276 107.735 509.322 110.017L510.545 111.6L511.767 113.183C514.68 110.932 516.388 109.6 516.825 109.236L515.545 107.7ZM510.545 111.6L509.345 110C507.888 111.092 506.776 111.889 505.993 112.406C505.598 112.667 505.32 112.834 505.142 112.928C505.052 112.976 505.022 112.987 505.037 112.981C505.046 112.978 505.089 112.962 505.156 112.945C505.216 112.93 505.355 112.9 505.545 112.9V114.9V116.9C505.973 116.9 506.323 116.772 506.47 116.716C506.665 116.641 506.854 116.549 507.022 116.459C507.361 116.279 507.758 116.033 508.196 115.744C509.08 115.161 510.268 114.308 511.745 113.2L510.545 111.6ZM506.145 107.5V109.5C506.72 109.5 507.357 109.29 507.793 109.135C508.331 108.945 508.996 108.673 509.774 108.331C511.336 107.644 513.462 106.627 516.139 105.289L515.245 103.5L514.35 101.711C511.694 103.039 509.636 104.022 508.165 104.669C507.426 104.994 506.863 105.222 506.458 105.365C505.953 105.544 505.936 105.5 506.145 105.5V107.5ZM515.245 103.5H517.245V76H515.245H513.245V103.5H515.245ZM515.245 76L515.854 74.0951C514.046 73.5166 511.764 73.0305 509.041 72.6221L508.745 74.6L508.448 76.5779C511.059 76.9695 513.11 77.4167 514.635 77.9048L515.245 76ZM508.745 74.6L509.089 72.6299C506.468 72.1712 504.359 71.9348 503.062 72.1201L503.345 74.1L503.627 76.0799C504.197 75.9985 505.688 76.0954 508.4 76.5701L508.745 74.6ZM503.345 74.1L503.033 72.1245C501.68 72.3381 500.693 73.1966 500.011 74.2067C499.344 75.1961 498.865 76.4729 498.504 77.9149L500.445 78.4L502.385 78.8851C502.691 77.6604 503.028 76.8872 503.328 76.4433C503.613 76.02 503.743 76.0619 503.656 76.0755L503.345 74.1ZM500.445 78.4L498.493 77.961C497.839 80.8679 497.545 85.7363 497.545 92.4H499.545H501.545C501.545 85.7304 501.85 81.2654 502.396 78.839L500.445 78.4ZM499.545 92.4H497.545C497.545 95.9275 497.923 98.9851 498.742 101.516L500.645 100.9L502.547 100.284C501.899 98.2816 501.545 95.6725 501.545 92.4H499.545ZM500.645 100.9L498.759 101.566C499.599 103.946 500.612 105.91 501.885 107.268L503.345 105.9L504.804 104.532C504.077 103.757 503.29 102.387 502.531 100.234L500.645 100.9ZM503.345 105.9L501.93 107.314C503.075 108.459 504.506 109.5 506.145 109.5V107.5V105.5C506.192 105.5 506.101 105.515 505.837 105.364C505.573 105.213 505.213 104.94 504.759 104.486L503.345 105.9ZM539.269 113.5L537.855 114.914L537.879 114.939L537.904 114.962L539.269 113.5ZM537.869 75.1H539.869V73.7812L538.657 73.2617L537.869 75.1ZM534.369 73.6H532.369V74.9188L533.581 75.4383L534.369 73.6ZM534.369 69.9L534.009 67.9326L532.369 68.2327V69.9H534.369ZM545.269 69.8L543.803 71.1609L543.854 71.2152L543.908 71.2656L545.269 69.8ZM546.669 75.4H544.669V79.3468L547.851 77.0128L546.669 75.4ZM553.069 70.8L551.938 69.1505L551.926 69.1582L551.915 69.1661L553.069 70.8ZM567.769 72.2L566.317 73.5755L566.326 73.5852L566.335 73.5947L567.769 72.2ZM571.369 108.1H569.369V109.419L570.581 109.938L571.369 108.1ZM574.869 109.6H576.869V108.281L575.657 107.762L574.869 109.6ZM574.869 113.3L575.247 115.264L576.869 114.951V113.3H574.869ZM563.769 113.5L562.404 114.962L562.404 114.962L563.769 113.5ZM551.469 77.6L552.285 79.4256L552.296 79.4208L552.307 79.4159L551.469 77.6ZM546.969 79.6L546.181 77.7617L544.969 78.2812V79.6H546.969ZM546.969 108.1H544.969V109.404L546.161 109.93L546.969 108.1ZM550.369 109.6H552.369V108.296L551.176 107.77L550.369 109.6ZM550.369 113.3L550.752 115.263L552.369 114.947V113.3H550.369ZM541.269 114.9V112.9C541.454 112.9 541.593 112.931 541.667 112.952C541.744 112.974 541.791 112.995 541.802 113C541.819 113.008 541.777 112.99 541.666 112.912C541.443 112.756 541.104 112.477 540.633 112.038L539.269 113.5L537.904 114.962C538.433 115.456 538.928 115.878 539.372 116.188C539.593 116.344 539.844 116.5 540.11 116.625C540.348 116.736 540.762 116.9 541.269 116.9V114.9ZM539.269 113.5L540.683 112.086C540.247 111.649 539.976 111.339 539.829 111.139C539.755 111.038 539.743 111.008 539.757 111.037C539.766 111.054 539.79 111.106 539.814 111.19C539.837 111.271 539.869 111.413 539.869 111.6H537.869H535.869C535.869 112.113 536.037 112.531 536.155 112.776C536.286 113.046 536.449 113.295 536.609 113.511C536.928 113.945 537.358 114.417 537.855 114.914L539.269 113.5ZM537.869 111.6H539.869V75.1H537.869H535.869V111.6H537.869ZM537.869 75.1L538.657 73.2617L535.157 71.7617L534.369 73.6L533.581 75.4383L537.081 76.9383L537.869 75.1ZM534.369 73.6H536.369V69.9H534.369H532.369V73.6H534.369ZM534.369 69.9L534.729 71.8674C537.458 71.3681 539.57 70.9955 541.069 70.7484C541.82 70.6246 542.406 70.5341 542.835 70.4751C543.314 70.4092 543.479 70.4 543.469 70.4V68.4V66.4C543.158 66.4 542.719 66.4533 542.29 66.5124C541.81 66.5784 541.184 66.6754 540.418 66.8016C538.885 67.0545 536.746 67.4319 534.009 67.9326L534.369 69.9ZM543.469 68.4V70.4C543.281 70.4 543.135 70.3677 543.046 70.3419C542.957 70.3157 542.898 70.2881 542.874 70.2764C542.833 70.2558 542.852 70.2598 542.941 70.3287C543.118 70.4667 543.401 70.728 543.803 71.1609L545.269 69.8L546.734 68.4391C546.27 67.9386 545.819 67.5 545.397 67.1713C545.185 67.0069 544.938 66.8359 544.663 66.6986C544.41 66.5721 543.989 66.4 543.469 66.4V68.4ZM545.269 69.8L543.908 71.2656C544.341 71.6675 544.602 71.9505 544.74 72.1279C544.809 72.2165 544.813 72.2356 544.792 72.1944C544.781 72.171 544.753 72.1122 544.727 72.0225C544.701 71.9339 544.669 71.7882 544.669 71.6H546.669H548.669C548.669 71.0795 548.497 70.6586 548.37 70.4056C548.233 70.1311 548.062 69.8835 547.897 69.6721C547.569 69.2495 547.13 68.7991 546.63 68.3344L545.269 69.8ZM546.669 71.6H544.669V75.4H546.669H548.669V71.6H546.669ZM546.669 75.4L547.851 77.0128C549.841 75.554 551.964 74.0278 554.222 72.4339L553.069 70.8L551.915 69.1661C549.64 70.7722 547.497 72.3126 545.486 73.7872L546.669 75.4ZM553.069 70.8L554.2 72.4495C555.358 71.6553 556.234 71.0773 556.842 70.7033C557.149 70.5141 557.358 70.3959 557.485 70.3312C557.55 70.2979 557.561 70.2957 557.532 70.3065C557.517 70.3122 557.469 70.3301 557.397 70.3485C557.336 70.3637 557.18 70.4 556.969 70.4V68.4V66.4C556.546 66.4 556.206 66.5313 556.108 66.5685C555.949 66.6293 555.796 66.7021 555.665 66.7688C555.4 66.9041 555.088 67.0859 554.746 67.2967C554.053 67.7227 553.113 68.3447 551.938 69.1505L553.069 70.8ZM556.969 68.4V70.4C561.432 70.4 564.419 71.5725 566.317 73.5755L567.769 72.2L569.221 70.8245C566.318 67.7608 562.105 66.4 556.969 66.4V68.4ZM567.769 72.2L566.335 73.5947C568.173 75.4838 569.369 79.1413 569.369 85.2H571.369H573.369C573.369 78.8587 572.164 73.8495 569.202 70.8053L567.769 72.2ZM571.369 85.2H569.369V108.1H571.369H573.369V85.2H571.369ZM571.369 108.1L570.581 109.938L574.081 111.438L574.869 109.6L575.657 107.762L572.157 106.262L571.369 108.1ZM574.869 109.6H572.869V113.3H574.869H576.869V109.6H574.869ZM574.869 113.3L574.49 111.336C571.727 111.869 569.598 112.266 568.097 112.53C567.346 112.662 566.763 112.759 566.342 112.822C565.858 112.894 565.724 112.9 565.769 112.9V114.9V116.9C566.08 116.9 566.525 116.839 566.933 116.778C567.404 116.708 568.025 116.604 568.79 116.47C570.323 116.2 572.477 115.798 575.247 115.264L574.869 113.3ZM565.769 114.9V112.9C565.954 112.9 566.093 112.931 566.167 112.952C566.244 112.974 566.291 112.995 566.302 113C566.319 113.008 566.277 112.99 566.166 112.912C565.943 112.756 565.604 112.477 565.133 112.038L563.769 113.5L562.404 114.962C562.933 115.456 563.428 115.878 563.872 116.188C564.093 116.344 564.344 116.5 564.61 116.625C564.848 116.736 565.262 116.9 565.769 116.9V114.9ZM563.769 113.5L565.133 112.038C564.664 111.6 564.373 111.287 564.214 111.086C564.134 110.984 564.122 110.955 564.139 110.987C564.149 111.006 564.177 111.063 564.205 111.154C564.232 111.242 564.269 111.397 564.269 111.6H562.269H560.269C560.269 112.144 560.459 112.58 560.586 112.825C560.728 113.099 560.904 113.349 561.074 113.564C561.415 113.996 561.873 114.467 562.404 114.962L563.769 113.5ZM562.269 111.6H564.269V85.2H562.269H560.269V111.6H562.269ZM562.269 85.2H564.269C564.269 83.0549 564.115 81.205 563.768 79.7003C563.43 78.2384 562.852 76.8429 561.797 75.9052L560.469 77.4L559.14 78.8948C559.285 79.0238 559.607 79.4616 559.87 80.5997C560.123 81.695 560.269 83.2118 560.269 85.2H562.269ZM560.469 77.4L561.797 75.9052C560.269 74.5464 558.473 73.8 556.469 73.8V75.8V77.8C557.398 77.8 558.269 78.1203 559.14 78.8948L560.469 77.4ZM556.469 75.8V73.8C555.716 73.8 554.82 74.0698 553.991 74.3682C553.081 74.696 551.955 75.1726 550.631 75.7841L551.469 77.6L552.307 79.4159C553.582 78.8274 554.59 78.404 555.346 78.1318C556.184 77.8302 556.488 77.8 556.469 77.8V75.8ZM551.469 77.6L550.652 75.7744C548.11 76.9114 546.629 77.5696 546.181 77.7617L546.969 79.6L547.757 81.4383C548.242 81.2304 549.76 80.5553 552.285 79.4256L551.469 77.6ZM546.969 79.6H544.969V108.1H546.969H548.969V79.6H546.969ZM546.969 108.1L546.161 109.93L549.561 111.43L550.369 109.6L551.176 107.77L547.776 106.27L546.969 108.1ZM550.369 109.6H548.369V113.3H550.369H552.369V109.6H550.369ZM550.369 113.3L549.986 111.337C547.257 111.87 545.146 112.267 543.647 112.53C542.897 112.662 542.312 112.758 541.885 112.821C541.404 112.892 541.248 112.9 541.269 112.9V114.9V116.9C541.59 116.9 542.038 116.842 542.465 116.779C542.947 116.708 543.574 116.605 544.34 116.47C545.875 116.2 548.014 115.797 550.752 115.263L550.369 113.3Z" fill="#8646C1" mask="url(#path-8-outside-1_103_32)"/>
</g>
<defs>
<linearGradient id="paint0_linear_103_32" x1="421" y1="4" x2="421" y2="177" gradientUnits="userSpaceOnUse">
<stop stop-color="white"/>
<stop offset="1" stop-color="#CAB4DE"/>
</linearGradient>
<clipPath id="clip0_103_32">
<rect width="584" height="160" fill="white"/>
</clipPath>
</defs>
</svg>
