<svg width="24" height="24" viewBox="0 0 24 24" fill="none" xmlns="http://www.w3.org/2000/svg">
<path d="M3.61999 9.61005C3.73525 9.72615 3.87234 9.8183 4.02337 9.88118C4.17441 9.94406 4.33639 9.97644 4.49999 9.97644C4.66359 9.97644 4.82557 9.94406 4.9766 9.88118C5.12763 9.8183 5.26473 9.72615 5.37999 9.61005L11.82 3.19005C11.8433 3.16585 11.8713 3.14661 11.9022 3.13346C11.9331 3.12032 11.9664 3.11354 12 3.11354C12.0336 3.11354 12.0669 3.12032 12.0978 3.13346C12.1287 3.14661 12.1567 3.16585 12.18 3.19005L18.62 9.61005C18.7356 9.72561 18.8727 9.81728 19.0237 9.87982C19.1747 9.94237 19.3366 9.97456 19.5 9.97456C19.6634 9.97456 19.8253 9.94237 19.9762 9.87982C20.1272 9.81728 20.2644 9.72561 20.38 9.61005C20.4956 9.49449 20.5872 9.35729 20.6498 9.2063C20.7123 9.05531 20.7445 8.89348 20.7445 8.73005C20.7445 8.56662 20.7123 8.40479 20.6498 8.2538C20.5872 8.1028 20.4956 7.96561 20.38 7.85005L12.88 0.370049C12.7647 0.253946 12.6276 0.161799 12.4766 0.0989175C12.3256 0.0360357 12.1636 0.00366211 12 0.00366211C11.8364 0.00366211 11.6744 0.0360357 11.5234 0.0989175C11.3723 0.161799 11.2352 0.253946 11.12 0.370049L3.61999 7.85005C3.50389 7.96531 3.41174 8.1024 3.34886 8.25344C3.28597 8.40447 3.2536 8.56645 3.2536 8.73005C3.2536 8.89365 3.28597 9.05563 3.34886 9.20666C3.41174 9.35769 3.50389 9.49479 3.61999 9.61005ZM20.38 14.39C20.2647 14.2739 20.1276 14.1818 19.9766 14.1189C19.8256 14.056 19.6636 14.0237 19.5 14.0237C19.3364 14.0237 19.1744 14.056 19.0234 14.1189C18.8723 14.1818 18.7352 14.2739 18.62 14.39L12.18 20.81C12.1567 20.8342 12.1287 20.8535 12.0978 20.8666C12.0669 20.8798 12.0336 20.8866 12 20.8866C11.9664 20.8866 11.9331 20.8798 11.9022 20.8666C11.8713 20.8535 11.8433 20.8342 11.82 20.81L5.37999 14.39C5.1466 14.1567 4.83005 14.0255 4.49999 14.0255C4.16992 14.0255 3.85338 14.1567 3.61999 14.39C3.3866 14.6234 3.25548 14.94 3.25548 15.27C3.25548 15.6001 3.3866 15.9167 3.61999 16.15L11.12 23.63C11.2346 23.7474 11.3714 23.8406 11.5226 23.9042C11.6737 23.9679 11.836 24.0007 12 24.0007C12.164 24.0007 12.3263 23.9679 12.4774 23.9042C12.6285 23.8406 12.7654 23.7474 12.88 23.63L20.38 16.15C20.4961 16.0348 20.5882 15.8977 20.6511 15.7467C20.714 15.5956 20.7464 15.4336 20.7464 15.27C20.7464 15.1064 20.714 14.9445 20.6511 14.7934C20.5882 14.6424 20.4961 14.5053 20.38 14.39Z" fill="black"/>
</svg>
